<mxfile host="app.diagrams.net" agent="Mozilla/5.0 (Windows NT 10.0; Win64; x64) AppleWebKit/537.36 (KHTML, like Gecko) Chrome/131.0.0.0 Safari/537.36" version="25.0.3">
  <diagram name="Страница — 1" id="4pJBlzTdeUGFtukCkoKm">
    <mxGraphModel grid="1" page="1" gridSize="10" guides="1" tooltips="1" connect="1" arrows="1" fold="1" pageScale="1" pageWidth="827" pageHeight="1169" math="0" shadow="0">
      <root>
        <mxCell id="0" />
        <mxCell id="1" parent="0" />
        <mxCell id="ONTgy1Kjg6mQQV6qxtdO-36" style="edgeStyle=orthogonalEdgeStyle;rounded=0;orthogonalLoop=1;jettySize=auto;html=1;" edge="1" parent="1" source="ONTgy1Kjg6mQQV6qxtdO-1" target="ONTgy1Kjg6mQQV6qxtdO-11">
          <mxGeometry relative="1" as="geometry" />
        </mxCell>
        <mxCell id="ONTgy1Kjg6mQQV6qxtdO-1" value="Підготовка документів" style="rounded=0;whiteSpace=wrap;html=1;" vertex="1" parent="1">
          <mxGeometry x="330" y="300" width="120" height="60" as="geometry" />
        </mxCell>
        <mxCell id="ONTgy1Kjg6mQQV6qxtdO-2" value="Перелік документів" style="text;whiteSpace=wrap;" vertex="1" parent="1">
          <mxGeometry x="170" y="300" width="110" height="40" as="geometry" />
        </mxCell>
        <mxCell id="ONTgy1Kjg6mQQV6qxtdO-5" value="Довідки" style="text;whiteSpace=wrap;" vertex="1" parent="1">
          <mxGeometry x="320" y="240" width="80" height="20" as="geometry" />
        </mxCell>
        <mxCell id="ONTgy1Kjg6mQQV6qxtdO-6" value="Вимоги ВНЗ" style="text;whiteSpace=wrap;" vertex="1" parent="1">
          <mxGeometry x="400" y="240" width="100" height="20" as="geometry" />
        </mxCell>
        <mxCell id="ONTgy1Kjg6mQQV6qxtdO-7" value="Специфікації" style="text;whiteSpace=wrap;" vertex="1" parent="1">
          <mxGeometry x="200" y="340" width="80" height="40" as="geometry" />
        </mxCell>
        <mxCell id="ONTgy1Kjg6mQQV6qxtdO-8" value="Абітурієнт " style="text;whiteSpace=wrap;" vertex="1" parent="1">
          <mxGeometry x="320" y="400" width="60" height="20" as="geometry" />
        </mxCell>
        <mxCell id="ONTgy1Kjg6mQQV6qxtdO-9" value="Онлайн ресурси" style="text;whiteSpace=wrap;" vertex="1" parent="1">
          <mxGeometry x="390" y="400" width="80" height="20" as="geometry" />
        </mxCell>
        <mxCell id="ONTgy1Kjg6mQQV6qxtdO-12" value="" style="endArrow=classic;html=1;rounded=0;entryX=0.3;entryY=1.13;entryDx=0;entryDy=0;entryPerimeter=0;" edge="1" parent="1">
          <mxGeometry width="50" height="50" relative="1" as="geometry">
            <mxPoint x="420" y="400" as="sourcePoint" />
            <mxPoint x="420" y="362.59999999999997" as="targetPoint" />
          </mxGeometry>
        </mxCell>
        <mxCell id="ONTgy1Kjg6mQQV6qxtdO-13" value="" style="endArrow=classic;html=1;rounded=0;entryX=0.3;entryY=1.13;entryDx=0;entryDy=0;entryPerimeter=0;" edge="1" parent="1">
          <mxGeometry width="50" height="50" relative="1" as="geometry">
            <mxPoint x="349.86" y="400" as="sourcePoint" />
            <mxPoint x="349.86" y="363" as="targetPoint" />
          </mxGeometry>
        </mxCell>
        <mxCell id="ONTgy1Kjg6mQQV6qxtdO-14" value="" style="endArrow=classic;html=1;rounded=0;entryX=0.5;entryY=0;entryDx=0;entryDy=0;" edge="1" parent="1">
          <mxGeometry width="50" height="50" relative="1" as="geometry">
            <mxPoint x="349.86" y="260" as="sourcePoint" />
            <mxPoint x="350.06" y="300" as="targetPoint" />
          </mxGeometry>
        </mxCell>
        <mxCell id="ONTgy1Kjg6mQQV6qxtdO-15" value="" style="endArrow=classic;html=1;rounded=0;entryX=0.333;entryY=-0.03;entryDx=0;entryDy=0;entryPerimeter=0;" edge="1" parent="1">
          <mxGeometry width="50" height="50" relative="1" as="geometry">
            <mxPoint x="420.04" y="260.6" as="sourcePoint" />
            <mxPoint x="419.99999999999994" y="300.0000000000001" as="targetPoint" />
          </mxGeometry>
        </mxCell>
        <mxCell id="ONTgy1Kjg6mQQV6qxtdO-17" value="" style="endArrow=classic;html=1;rounded=0;entryX=0;entryY=0.25;entryDx=0;entryDy=0;" edge="1" parent="1" target="ONTgy1Kjg6mQQV6qxtdO-1">
          <mxGeometry width="50" height="50" relative="1" as="geometry">
            <mxPoint x="281" y="315" as="sourcePoint" />
            <mxPoint x="280" y="280" as="targetPoint" />
          </mxGeometry>
        </mxCell>
        <mxCell id="ONTgy1Kjg6mQQV6qxtdO-18" value="" style="endArrow=classic;html=1;rounded=0;exitX=1.007;exitY=0.356;exitDx=0;exitDy=0;exitPerimeter=0;" edge="1" parent="1">
          <mxGeometry width="50" height="50" relative="1" as="geometry">
            <mxPoint x="280" y="350" as="sourcePoint" />
            <mxPoint x="329" y="350" as="targetPoint" />
          </mxGeometry>
        </mxCell>
        <mxCell id="ONTgy1Kjg6mQQV6qxtdO-19" value="Реєстрація на подання документів" style="rounded=0;whiteSpace=wrap;html=1;" vertex="1" parent="1">
          <mxGeometry x="510" y="430" width="120" height="60" as="geometry" />
        </mxCell>
        <mxCell id="ONTgy1Kjg6mQQV6qxtdO-20" value="" style="endArrow=classic;html=1;rounded=0;entryX=0.411;entryY=-0.05;entryDx=0;entryDy=0;entryPerimeter=0;" edge="1" parent="1" source="ONTgy1Kjg6mQQV6qxtdO-11" target="ONTgy1Kjg6mQQV6qxtdO-19">
          <mxGeometry width="50" height="50" relative="1" as="geometry">
            <mxPoint x="560" y="345" as="sourcePoint" />
            <mxPoint x="610" y="295" as="targetPoint" />
          </mxGeometry>
        </mxCell>
        <mxCell id="ONTgy1Kjg6mQQV6qxtdO-21" value="Вимоги до реєстрації (онлайн/офлайн)" style="text;whiteSpace=wrap;" vertex="1" parent="1">
          <mxGeometry x="353" y="450" width="121" height="40" as="geometry" />
        </mxCell>
        <mxCell id="ONTgy1Kjg6mQQV6qxtdO-22" value="Електронна система" style="text;whiteSpace=wrap;" vertex="1" parent="1">
          <mxGeometry x="490" y="520" width="100" height="40" as="geometry" />
        </mxCell>
        <mxCell id="ONTgy1Kjg6mQQV6qxtdO-23" value="Сайти ВНЗ" style="text;whiteSpace=wrap;" vertex="1" parent="1">
          <mxGeometry x="590" y="520" width="90" height="40" as="geometry" />
        </mxCell>
        <mxCell id="ONTgy1Kjg6mQQV6qxtdO-35" style="edgeStyle=orthogonalEdgeStyle;rounded=0;orthogonalLoop=1;jettySize=auto;html=1;entryX=0.5;entryY=1;entryDx=0;entryDy=0;" edge="1" parent="1" source="ONTgy1Kjg6mQQV6qxtdO-24" target="ONTgy1Kjg6mQQV6qxtdO-33">
          <mxGeometry relative="1" as="geometry" />
        </mxCell>
        <mxCell id="ONTgy1Kjg6mQQV6qxtdO-24" value="Готовність до подання документів" style="text;whiteSpace=wrap;" vertex="1" parent="1">
          <mxGeometry x="670" y="440" width="110" height="40" as="geometry" />
        </mxCell>
        <mxCell id="ONTgy1Kjg6mQQV6qxtdO-25" value="" style="endArrow=classic;html=1;rounded=0;entryX=0;entryY=0.667;entryDx=0;entryDy=0;entryPerimeter=0;" edge="1" parent="1" target="ONTgy1Kjg6mQQV6qxtdO-19">
          <mxGeometry width="50" height="50" relative="1" as="geometry">
            <mxPoint x="480" y="470" as="sourcePoint" />
            <mxPoint x="530" y="420" as="targetPoint" />
          </mxGeometry>
        </mxCell>
        <mxCell id="ONTgy1Kjg6mQQV6qxtdO-26" value="" style="endArrow=classic;html=1;rounded=0;entryX=0.169;entryY=1.039;entryDx=0;entryDy=0;entryPerimeter=0;" edge="1" parent="1" target="ONTgy1Kjg6mQQV6qxtdO-19">
          <mxGeometry width="50" height="50" relative="1" as="geometry">
            <mxPoint x="530" y="530" as="sourcePoint" />
            <mxPoint x="580" y="480" as="targetPoint" />
          </mxGeometry>
        </mxCell>
        <mxCell id="ONTgy1Kjg6mQQV6qxtdO-27" value="" style="endArrow=classic;html=1;rounded=0;entryX=0.169;entryY=1.039;entryDx=0;entryDy=0;entryPerimeter=0;" edge="1" parent="1">
          <mxGeometry width="50" height="50" relative="1" as="geometry">
            <mxPoint x="610" y="528" as="sourcePoint" />
            <mxPoint x="610" y="490" as="targetPoint" />
          </mxGeometry>
        </mxCell>
        <mxCell id="ONTgy1Kjg6mQQV6qxtdO-28" value="" style="endArrow=classic;html=1;rounded=0;entryX=0;entryY=0.7;entryDx=0;entryDy=0;entryPerimeter=0;" edge="1" parent="1" target="ONTgy1Kjg6mQQV6qxtdO-24">
          <mxGeometry width="50" height="50" relative="1" as="geometry">
            <mxPoint x="630" y="468" as="sourcePoint" />
            <mxPoint x="630" y="430" as="targetPoint" />
          </mxGeometry>
        </mxCell>
        <mxCell id="ONTgy1Kjg6mQQV6qxtdO-11" value="Сформований комплект документів" style="text;whiteSpace=wrap;align=center;" vertex="1" parent="1">
          <mxGeometry x="490" y="340" width="140" height="40" as="geometry" />
        </mxCell>
        <mxCell id="ONTgy1Kjg6mQQV6qxtdO-34" value="" style="edgeStyle=orthogonalEdgeStyle;rounded=0;orthogonalLoop=1;jettySize=auto;html=1;" edge="1" parent="1" source="ONTgy1Kjg6mQQV6qxtdO-30" target="ONTgy1Kjg6mQQV6qxtdO-33">
          <mxGeometry relative="1" as="geometry" />
        </mxCell>
        <mxCell id="ONTgy1Kjg6mQQV6qxtdO-30" value="Підготовлений комплект документів" style="text;whiteSpace=wrap;" vertex="1" parent="1">
          <mxGeometry x="490" y="290" width="140" height="40" as="geometry" />
        </mxCell>
        <mxCell id="ONTgy1Kjg6mQQV6qxtdO-32" value="" style="endArrow=classic;html=1;rounded=0;entryX=0;entryY=0.5;entryDx=0;entryDy=0;exitX=1.006;exitY=0.811;exitDx=0;exitDy=0;exitPerimeter=0;" edge="1" parent="1" target="ONTgy1Kjg6mQQV6qxtdO-30">
          <mxGeometry width="50" height="50" relative="1" as="geometry">
            <mxPoint x="450" y="311" as="sourcePoint" />
            <mxPoint x="487" y="309" as="targetPoint" />
          </mxGeometry>
        </mxCell>
        <mxCell id="ONTgy1Kjg6mQQV6qxtdO-48" style="edgeStyle=orthogonalEdgeStyle;rounded=0;orthogonalLoop=1;jettySize=auto;html=1;" edge="1" parent="1" source="ONTgy1Kjg6mQQV6qxtdO-33">
          <mxGeometry relative="1" as="geometry">
            <mxPoint x="840" y="310" as="targetPoint" />
          </mxGeometry>
        </mxCell>
        <mxCell id="ONTgy1Kjg6mQQV6qxtdO-33" value="Подання документів" style="rounded=0;whiteSpace=wrap;html=1;" vertex="1" parent="1">
          <mxGeometry x="665" y="280" width="120" height="60" as="geometry" />
        </mxCell>
        <mxCell id="ONTgy1Kjg6mQQV6qxtdO-39" value="Правила приймальної комісії" style="text;whiteSpace=wrap;align=center;" vertex="1" parent="1">
          <mxGeometry x="630" y="180" width="100" height="50" as="geometry" />
        </mxCell>
        <mxCell id="ONTgy1Kjg6mQQV6qxtdO-40" value="Онлайн система" style="text;whiteSpace=wrap;" vertex="1" parent="1">
          <mxGeometry x="730" y="190" width="70" height="40" as="geometry" />
        </mxCell>
        <mxCell id="ONTgy1Kjg6mQQV6qxtdO-42" value="Підтвердження прийому документів" style="text;whiteSpace=wrap;" vertex="1" parent="1">
          <mxGeometry x="850" y="280" width="103" height="40" as="geometry" />
        </mxCell>
        <mxCell id="ONTgy1Kjg6mQQV6qxtdO-46" style="edgeStyle=orthogonalEdgeStyle;rounded=0;orthogonalLoop=1;jettySize=auto;html=1;entryX=0.122;entryY=-0.028;entryDx=0;entryDy=0;entryPerimeter=0;" edge="1" parent="1" source="ONTgy1Kjg6mQQV6qxtdO-39" target="ONTgy1Kjg6mQQV6qxtdO-33">
          <mxGeometry relative="1" as="geometry" />
        </mxCell>
        <mxCell id="ONTgy1Kjg6mQQV6qxtdO-47" style="edgeStyle=orthogonalEdgeStyle;rounded=0;orthogonalLoop=1;jettySize=auto;html=1;entryX=0.831;entryY=-0.011;entryDx=0;entryDy=0;entryPerimeter=0;" edge="1" parent="1" source="ONTgy1Kjg6mQQV6qxtdO-40" target="ONTgy1Kjg6mQQV6qxtdO-33">
          <mxGeometry relative="1" as="geometry" />
        </mxCell>
        <mxCell id="ONTgy1Kjg6mQQV6qxtdO-49" value="A1" style="text;html=1;align=center;verticalAlign=middle;whiteSpace=wrap;rounded=0;fontSize=7;" vertex="1" parent="1">
          <mxGeometry x="330" y="350" width="20" height="10" as="geometry" />
        </mxCell>
        <mxCell id="ONTgy1Kjg6mQQV6qxtdO-50" value="A2" style="text;html=1;align=center;verticalAlign=middle;whiteSpace=wrap;rounded=0;fontSize=7;" vertex="1" parent="1">
          <mxGeometry x="510" y="480" width="20" height="10" as="geometry" />
        </mxCell>
        <mxCell id="ONTgy1Kjg6mQQV6qxtdO-51" value="A3" style="text;html=1;align=center;verticalAlign=middle;whiteSpace=wrap;rounded=0;fontSize=7;" vertex="1" parent="1">
          <mxGeometry x="665" y="330" width="20" height="10" as="geometry" />
        </mxCell>
      </root>
    </mxGraphModel>
  </diagram>
</mxfile>
